<?xml version="1.0" standalone="no"?>
<!DOCTYPE svg PUBLIC "-//W3C//DTD SVG 20010904//EN"
 "http://www.w3.org/TR/2001/REC-SVG-20010904/DTD/svg10.dtd">
<svg version="1.0" xmlns="http://www.w3.org/2000/svg"
 width="856.000000pt" height="856.000000pt" viewBox="0 0 856.000000 856.000000"
 preserveAspectRatio="xMidYMid meet">
<metadata>
Created by potrace 1.11, written by Peter Selinger 2001-2013
</metadata>
<g transform="translate(0.000000,856.000000) scale(0.100000,-0.100000)"
fill="#000000" stroke="none">
<path d="M7125 8554 c-279 -43 -409 -65 -411 -67 -5 -5 525 -1408 544 -1441
34 -58 52 -61 250 -32 308 45 302 44 302 76 0 16 -23 179 -50 362 -125 827
-128 843 -188 931 -43 62 -96 105 -170 140 -54 25 -78 30 -156 33 -50 1 -104
0 -121 -2z"/>
<path d="M5790 8350 c-129 -21 -256 -41 -282 -44 -31 -5 -48 -12 -48 -21 0
-17 511 -1379 534 -1423 24 -47 48 -55 140 -49 102 6 508 67 520 78 5 5 -7 50
-28 106 -21 54 -145 384 -277 733 -132 349 -245 640 -251 647 -15 18 -40 16
-308 -27z"/>
<path d="M4495 8153 c-132 -19 -241 -37 -243 -38 -3 -2 411 -1108 510 -1363
22 -56 46 -109 55 -117 21 -22 71 -18 338 24 l240 38 -3 25 c-3 31 -516 1390
-540 1432 -16 27 -24 31 -68 33 -27 1 -157 -14 -289 -34z"/>
<path d="M3510 8003 c-61 -7 -474 -73 -477 -77 -2 -1 57 -162 131 -357 74
-195 197 -519 273 -721 76 -202 148 -380 159 -394 l20 -27 254 37 c140 21 272
40 293 43 20 3 37 11 37 17 0 10 -60 169 -425 1131 -80 212 -125 317 -142 333
-24 22 -42 24 -123 15z"/>
<path d="M2085 7788 c-137 -21 -251 -41 -254 -43 -2 -3 105 -293 238 -645 134
-353 254 -676 268 -718 14 -42 35 -90 46 -106 20 -28 22 -28 91 -23 85 7 495
73 503 81 3 3 -11 50 -31 103 -21 54 -143 378 -272 720 -129 342 -239 633
-246 647 -15 34 -30 33 -343 -16z"/>
<path d="M1046 7630 c-48 -10 -114 -31 -145 -46 -65 -32 -150 -113 -180 -172
-27 -53 -51 -145 -51 -197 0 -53 171 -1188 181 -1199 7 -8 914 126 925 137 6
5 -506 1368 -537 1428 -34 69 -65 77 -193 49z"/>
<path d="M4871 5872 c-19 -14 -34 -73 -97 -367 -127 -597 -224 -1054 -224
-1062 0 -5 128 -8 284 -8 216 1 287 4 299 14 9 7 25 54 36 104 57 258 281
1311 281 1323 0 12 -48 14 -279 14 -251 0 -281 -2 -300 -18z"/>
<path d="M7359 5871 c-15 -13 -45 -133 -140 -571 -118 -546 -179 -835 -179
-852 0 -4 194 -8 430 -8 l430 0 -2 722 -3 722 -259 1 c-221 1 -261 -1 -277
-14z"/>
<path d="M850 5160 l0 -720 315 0 315 0 5 23 c27 114 295 1386 295 1400 0 16
-29 17 -465 17 l-465 0 0 -720z"/>
<path d="M2405 5868 c-7 -19 -305 -1413 -305 -1426 0 -18 561 -12 583 6 8 7
20 34 26 60 20 86 222 1034 252 1182 16 80 32 155 34 168 l5 22 -295 0 c-227
0 -297 -3 -300 -12z"/>
<path d="M3620 5878 c0 -2 -69 -326 -153 -721 -84 -394 -151 -720 -148 -722 7
-7 329 -6 470 2 110 5 124 8 136 27 17 26 305 1348 305 1399 0 16 -21 17 -305
17 -168 0 -305 -1 -305 -2z"/>
<path d="M6060 5828 c-6 -29 -75 -352 -153 -718 l-143 -665 325 -3 c178 -1
325 -1 327 1 5 4 304 1407 304 1423 0 12 -57 14 -324 14 l-325 0 -11 -52z"/>
<path d="M850 2342 c0 -2153 -4 -2023 57 -2135 51 -93 163 -171 281 -196 76
-16 6299 -16 6374 0 121 26 224 99 276 197 66 124 62 -24 62 2139 l0 1963
-3525 0 -3525 0 0 -1968z m4550 923 l295 -295 -295 -295 c-162 -162 -298 -295
-302 -295 -5 0 -8 97 -8 215 l0 215 -627 -2 -628 -3 -3 -262 -2 -263 -160 0
-160 0 0 425 0 425 790 0 790 0 0 215 c0 118 3 215 8 215 4 0 140 -133 302
-295z m18 -1617 l-3 -423 -792 -3 -793 -2 0 -217 0 -218 -295 295 c-162 162
-295 299 -295 305 0 6 133 143 295 305 l295 295 0 -218 0 -217 630 0 630 0 0
260 0 260 165 0 165 0 -2 -422z"/>
</g>
</svg>
